<?xml version="1.0" ?><svg id="Layer_1" style="enable-background:new 0 0 512 512;" version="1.1" viewBox="0 0 512 512" xml:space="preserve" xmlns="http://www.w3.org/2000/svg" xmlns:xlink="http://www.w3.org/1999/xlink"><style type="text/css">
	.st0{fill:#7DBAE7;}
	.st1{fill:#FFCE6C;}
	.st2{fill:#A6D17A;}
	.st3{fill:#ED6F62;}
</style><g><polygon class="st0" points="-4264.2,-5149.6 -4187.1,-5149.6 -4187.1,-5470.6 -4225.7,-5521.3 -4264.2,-5470.6  "/><polygon class="st1" points="-4467.5,-5149.6 -4390.4,-5149.6 -4390.4,-5598.9 -4429,-5649.6 -4467.5,-5598.9  "/><polygon class="st2" points="-4060.9,-5149.6 -3983.9,-5149.6 -3983.9,-5280 -4022.4,-5330.7 -4060.9,-5280  "/><polygon class="st3" points="-4162.6,-5149.6 -4085.5,-5149.6 -4085.5,-5400.7 -4124,-5451.4 -4162.6,-5400.7  "/><polygon class="st2" points="-4365.8,-5149.6 -4288.8,-5149.6 -4288.8,-5568.1 -4327.3,-5618.8 -4365.8,-5568.1  "/></g><g><polygon class="st0" id="XMLID_5_" points="217.5,506 294.5,506 294.5,185 256,134.3 217.5,185  "/><polygon class="st1" id="XMLID_4_" points="14.2,506 91.2,506 91.2,56.7 52.7,6 14.2,56.7  "/><polygon class="st2" id="XMLID_3_" points="420.8,506 497.8,506 497.8,375.7 459.3,325 420.8,375.7  "/><polygon class="st3" id="XMLID_2_" points="319.1,506 396.2,506 396.2,255 357.6,204.2 319.1,255  "/><polygon class="st2" id="XMLID_1_" points="115.8,506 192.9,506 192.9,87.6 154.4,36.9 115.8,87.6  "/></g></svg>