<?xml version="1.0" ?><svg data-name="Layer 1" id="Layer_1" viewBox="0 0 100 100" xmlns="http://www.w3.org/2000/svg"><defs><style>.cls-1{fill:#4d4d4d;}</style></defs><title/><path class="cls-1" d="M36.71667,60.80475l0.00024,0.00031L41.782,65.87018a2.91841,2.91841,0,0,0,4.12726,0L77.72186,34.05762a2.91849,2.91849,0,0,0,0-4.12732l-5.06512-5.06506a2.9183,2.9183,0,0,0-4.12726,0L43.84564,49.549,31.47052,37.17389a2.91841,2.91841,0,0,0-4.12726,0L22.27814,42.239a2.91841,2.91841,0,0,0,0,4.12726Z"/><path class="cls-1" d="M78.5,6.9165h-57a13.01442,13.01442,0,0,0-13,13v59a15.017,15.017,0,0,0,15,15h53a15.01672,15.01672,0,0,0,15-15v-59A13.01474,13.01474,0,0,0,78.5,6.9165Zm-57,6h57a7.00818,7.00818,0,0,1,7,7V70.97217a8.1393,8.1393,0,0,1-8.12988,8.12988H22.62939A8.13889,8.13889,0,0,1,14.5,70.97217V19.9165A7.00786,7.00786,0,0,1,21.5,12.9165Zm55,75h-53a9.01047,9.01047,0,0,1-9-9V78.54877a11.08857,11.08857,0,0,0,8.12939,3.55328H77.37012A11.08942,11.08942,0,0,0,85.5,78.54852v0.368A9.01015,9.01015,0,0,1,76.5,87.9165Z"/></svg>