<?xml version="1.0" ?><svg height="24px" version="1.1" viewBox="0 0 24 24" width="24px" xmlns="http://www.w3.org/2000/svg" xmlns:sketch="http://www.bohemiancoding.com/sketch/ns" xmlns:xlink="http://www.w3.org/1999/xlink"><title/><desc/><defs/><g fill="none" fill-rule="evenodd" id="miu" stroke="none" stroke-width="1"><g id="Artboard-1" transform="translate(-827.000000, -551.000000)"><g id="slice" transform="translate(215.000000, 119.000000)"/><path d="M829,552.313156 L829,572.686844 C829,572.859795 829.134102,573 829.313156,573 L849.686844,573 C849.859795,573 850,572.859135 850,572.688828 L850,555.5 L846.5,552 L829.311172,552 C829.139317,552 829,552.134102 829,552.313156 Z M833,571 L833,564 L846,564 L846,571 L833,571 Z M835,554 L835,559 L844,559 L844,554 L835,554 Z M841,554 L841,556 L842,556 L842,554 L841,554 L841,554 Z" fill="#000000" id="editor-floopy-dish-save-glyph"/></g></g></svg>