<?xml version="1.0" ?><svg id="Layer_1" style="enable-background:new 0 0 512 512;" version="1.1" viewBox="0 0 512 512" xml:space="preserve" xmlns="http://www.w3.org/2000/svg" xmlns:xlink="http://www.w3.org/1999/xlink"><style type="text/css">
	.st0{fill:#E8E8E8;}
	.st1{fill:#5CB8CD;}
	.st2{fill:#FB8A52;}
	.st3{fill:#BB0D48;}
	.st4{fill:#152D39;}
	.st5{fill:#FFFFFF;}
</style><g><g><circle class="st0" cx="256" cy="256" id="XMLID_13_" r="250"/><path class="st1" d="M480.4,355.9c1.5,0,3,0.4,4.4,1C498.4,326,506,291.9,506,256c0-98.5-57-183.7-139.8-224.4    v324.3H480.4z" id="XMLID_12_"/><path class="st2" d="M156.1,366.2v114.2c0,1.5-0.4,3-1,4.4C186,498.4,220.1,506,256,506    c98.5,0,183.7-57,224.4-139.8H156.1z" id="XMLID_11_"/><path class="st3" d="M31.6,156.1c-1.5,0-3-0.4-4.4-1C13.6,186,6,220.1,6,256c0,98.5,57,183.7,139.8,224.4V156.1    H31.6z" id="XMLID_10_"/><path class="st4" d="M355.9,31.6c0-1.5,0.4-3,1-4.4C326,13.6,291.9,6,256,6C157.5,6,72.3,63,31.6,145.8h324.3V31.6z    " id="XMLID_9_"/></g><path class="st5" d="M329.6,115h-11.3l-2.7,7.8h-4.2l10.9-30.1h3.5l10.6,30.1h-4.2L329.6,115z M319.4,111.6h9l-4.4-12.9h-0.1   L319.4,111.6z"/><path class="st5" d="M383.5,339v-34.4h11.2c3.6,0,6.4,0.8,8.4,2.3c2,1.6,3,3.9,3,7c0,1.5-0.5,2.8-1.4,4c-0.9,1.2-2.1,2.1-3.6,2.7   c2.3,0.3,4,1.3,5.3,2.9c1.3,1.6,2,3.6,2,5.8c0,3.1-1,5.6-3.1,7.2c-2,1.7-4.8,2.5-8.3,2.5H383.5z M388.1,319.3h7.5   c1.7,0,3.1-0.5,4.2-1.4c1.1-1,1.6-2.3,1.6-4c0-1.9-0.6-3.2-1.8-4.2c-1.2-0.9-2.9-1.4-5.1-1.4h-6.6V319.3z M388.1,322.9v12.5h9   c2.1,0,3.8-0.5,4.9-1.6c1.2-1,1.8-2.5,1.8-4.5c0-1.9-0.6-3.4-1.8-4.6c-1.2-1.2-2.8-1.8-4.8-1.9h-0.3H388.1z"/><path class="st5" d="M203.2,406.9l0,0.1c0.1,3.1-1,5.7-3.3,7.8c-2.3,2.1-5.2,3.2-8.9,3.2c-3.8,0-6.8-1.3-9.2-4   c-2.4-2.7-3.6-6.1-3.6-10.2v-5.9c0-4.1,1.2-7.5,3.6-10.2c2.4-2.7,5.4-4,9.2-4c3.8,0,6.8,1,9,3c2.2,2,3.3,4.7,3.2,8l0,0.1h-4.3   c0-2.3-0.7-4.2-2.1-5.5c-1.4-1.4-3.3-2-5.8-2c-2.5,0-4.5,1-6,3c-1.5,2-2.2,4.5-2.2,7.5v6c0,3,0.7,5.6,2.2,7.6c1.5,2,3.5,3,6,3   c2.5,0,4.4-0.7,5.8-2c1.4-1.3,2.1-3.2,2.1-5.6H203.2z"/><path class="st5" d="M101.3,208.2v-33.4h10.5c4.4,0,7.9,1.3,10.5,4c2.7,2.7,4,6.2,4,10.4v4.6c0,4.3-1.3,7.7-4,10.4   c-2.7,2.7-6.2,4-10.5,4H101.3z M105.8,178.4v26.3h6c3.1,0,5.5-1,7.3-3.1c1.8-2,2.7-4.6,2.7-7.8v-4.6c0-3.1-0.9-5.7-2.7-7.8   c-1.8-2-4.2-3.1-7.3-3.1H105.8z"/></g></svg>